<svg xmlns="http://www.w3.org/2000/svg" xmlns:xlink="http://www.w3.org/1999/xlink" width="1366" height="768" viewBox="0 0 1366 768">
  <defs>
    <clipPath id="clip-side_image">
      <rect width="1366" height="768"/>
    </clipPath>
  </defs>
  <g id="side_image" data-name="side image" clip-path="url(#clip-side_image)">
    <g id="Group_1" data-name="Group 1" transform="translate(164 73)">
      <rect id="Rectangle_1" data-name="Rectangle 1" width="122.462" height="105.996" transform="translate(691.549 38.076)" fill="#2f2e41"/>
      <rect id="Rectangle_2" data-name="Rectangle 2" width="350.92" height="291.233" transform="translate(276.825 67.92)" fill="#3f3d56"/>
      <rect id="Rectangle_3" data-name="Rectangle 3" width="139.956" height="17.495" transform="translate(382.307 116.287)" fill="#fff"/>
      <rect id="Rectangle_4" data-name="Rectangle 4" width="97.249" height="10.291" transform="translate(324.678 157.451)" fill="#fff"/>
      <rect id="Rectangle_5" data-name="Rectangle 5" width="97.249" height="10.291" transform="translate(402.889 225.371)" fill="#fff"/>
      <rect id="Rectangle_6" data-name="Rectangle 6" width="97.249" height="10.291" transform="translate(481.1 157.451)" fill="#6c63ff"/>
      <rect id="Rectangle_7" data-name="Rectangle 7" width="88.502" height="4.764" transform="translate(708.015 97.764)" fill="#6c63ff"/>
      <rect id="Rectangle_8" data-name="Rectangle 8" width="88.502" height="4.764" transform="translate(706.985 108.245)" fill="#6c63ff"/>
      <rect id="Rectangle_9" data-name="Rectangle 9" width="88.502" height="4.764" transform="translate(708.015 118.727)" fill="#6c63ff"/>
      <rect id="Rectangle_10" data-name="Rectangle 10" width="88.502" height="4.764" transform="translate(708.015 62.775)" fill="#6c63ff"/>
      <rect id="Rectangle_11" data-name="Rectangle 11" width="88.502" height="4.764" transform="translate(706.985 73.256)" fill="#6c63ff"/>
      <rect id="Rectangle_12" data-name="Rectangle 12" width="88.502" height="4.764" transform="translate(708.015 83.738)" fill="#6c63ff"/>
      <rect id="Rectangle_13" data-name="Rectangle 13" width="122.462" height="105.996" transform="translate(726.538 73.065)" fill="#3f3d56"/>
      <rect id="Rectangle_14" data-name="Rectangle 14" width="88.502" height="4.764" transform="translate(743.004 132.753)" fill="#6c63ff"/>
      <rect id="Rectangle_15" data-name="Rectangle 15" width="88.502" height="4.764" transform="translate(741.975 143.234)" fill="#6c63ff"/>
      <rect id="Rectangle_16" data-name="Rectangle 16" width="88.502" height="4.764" transform="translate(743.004 153.716)" fill="#6c63ff"/>
      <rect id="Rectangle_17" data-name="Rectangle 17" width="88.502" height="4.764" transform="translate(743.004 97.764)" fill="#6c63ff"/>
      <rect id="Rectangle_18" data-name="Rectangle 18" width="88.502" height="4.764" transform="translate(741.975 108.245)" fill="#6c63ff"/>
      <rect id="Rectangle_19" data-name="Rectangle 19" width="88.502" height="4.764" transform="translate(743.004 118.727)" fill="#6c63ff"/>
      <rect id="Rectangle_20" data-name="Rectangle 20" width="122.462" height="105.996" transform="translate(0 114.229)" fill="#3f3d56"/>
      <rect id="Rectangle_21" data-name="Rectangle 21" width="88.502" height="4.764" transform="translate(16.465 173.916)" fill="#6c63ff"/>
      <rect id="Rectangle_22" data-name="Rectangle 22" width="88.502" height="4.764" transform="translate(15.436 184.398)" fill="#6c63ff"/>
      <rect id="Rectangle_23" data-name="Rectangle 23" width="88.502" height="4.764" transform="translate(16.465 194.879)" fill="#6c63ff"/>
      <rect id="Rectangle_24" data-name="Rectangle 24" width="88.502" height="4.764" transform="translate(16.465 138.927)" fill="#6c63ff"/>
      <rect id="Rectangle_25" data-name="Rectangle 25" width="88.502" height="4.764" transform="translate(15.436 149.409)" fill="#6c63ff"/>
      <rect id="Rectangle_26" data-name="Rectangle 26" width="88.502" height="4.764" transform="translate(16.465 159.89)" fill="#6c63ff"/>
      <rect id="Rectangle_27" data-name="Rectangle 27" width="255.215" height="10.291" transform="translate(324.678 191.411)" fill="#fff"/>
      <rect id="Rectangle_28" data-name="Rectangle 28" width="57.115" height="10.291" transform="translate(324.678 225.371)" fill="#6c63ff"/>
      <rect id="Rectangle_29" data-name="Rectangle 29" width="57.115" height="10.291" transform="translate(324.678 293.291)" fill="#fff"/>
      <rect id="Rectangle_30" data-name="Rectangle 30" width="57.115" height="10.291" transform="translate(521.235 225.371)" fill="#fff"/>
      <rect id="Rectangle_31" data-name="Rectangle 31" width="255.215" height="10.291" transform="translate(324.678 259.331)" fill="#fff"/>
      <rect id="Rectangle_32" data-name="Rectangle 32" width="149.733" height="10.291" transform="translate(430.16 293.291)" fill="#fff"/>
      <path id="Path_2" data-name="Path 2" d="M555.5,163.222l-1.634-1.251L665.313,16.465H775.935v2.059H666.33Z" fill="#2f2e41"/>
      <path id="Path_3" data-name="Path 3" d="M330.7,231.3,167.362,91.589H57.629V89.531H168.122l163.914,140.2Z" fill="#2f2e41"/>
      <circle id="Ellipse_1" data-name="Ellipse 1" cx="16.465" cy="16.465" r="16.465" transform="translate(759.469 0)" fill="#6c63ff"/>
      <circle id="Ellipse_2" data-name="Ellipse 2" cx="16.465" cy="16.465" r="16.465" transform="translate(41.164 74.094)" fill="#6c63ff"/>
      <path id="Path_6" data-name="Path 6" d="M514.823,564.05,490,562.4l8.273,37.228,28.128-11.582Z" fill="#ffb9b9"/>
      <path id="Path_7" data-name="Path 7" d="M742.332,494.556,684.421,438.3l-33.092,25.646L585.971,542.54l7.446,11.582,79.422-53.774,53.774,70.321,51.293-25.647Z" fill="#2f2e41"/>
      <path id="Path_8" data-name="Path 8" d="M742.332,494.556,684.421,438.3l-33.092,25.646L585.971,542.54l7.446,11.582,79.422-53.774,53.774,70.321,51.293-25.647Z" opacity="0.1"/>
      <path id="Path_9" data-name="Path 9" d="M827.969,670.067l-7.446,5.791L760.13,655.175l-14.064-5.791-28.129,5.791s0-23.165,26.474-22.337l27.3,6.618,32.265,2.482Z" transform="translate(-80.673 -138.282)" fill="#ffb9b9"/>
      <path id="Path_10" data-name="Path 10" d="M801.071,593.006l-18.2,11.582H761.36l-100.1-37.229L514.823,593.833,510.686,562.4,644.71,503.657,762.188,542.54Z" fill="#2f2e41"/>
      <path id="Path_11" data-name="Path 11" d="M764.266,584.027l-12.41,2.482-2.7-3.155A16.717,16.717,0,0,1,746.893,565h0l34.747-45.5s9.928-22.337,25.646-13.237-13.237,23.992-13.237,23.992l-17.373,27.3,1.655,14.064Z" transform="translate(-80.673 -138.282)" fill="#ffb9b9"/>
      <circle id="Ellipse_3" data-name="Ellipse 3" cx="32.265" cy="32.265" r="32.265" transform="translate(729.923 327.44)" fill="#ffb9b9"/>
      <path id="Path_12" data-name="Path 12" d="M828.382,521.565l14.891,35.574,35.574-14.891s-11.582-28.128-11.582-28.956S828.382,521.565,828.382,521.565Z" transform="translate(-80.673 -138.282)" fill="#ffb9b9"/>
      <path id="Path_13" data-name="Path 13" d="M926.344,626.807a185.375,185.375,0,0,1-9.091,57.337l-2.417,7.433-11.582,52.948-12.41,3.309-9.1-11.582-18.2-13.237L850.306,701.5l-11.351-18.912-3.541-5.907-12.41-62.048-47.156-26.474-15.719-2.482,3.309-9.1L777.5,557.553l14.064-1.655,4.137-3.309,3.309,1.655L812.25,546.8l4.137,1.655,24.19,2.25,14.693-3.078L876.4,536.283l8.654,1.415,29.783,24.819a185.221,185.221,0,0,1,11.508,64.29Z" transform="translate(-80.673 -138.282)" fill="#575a89"/>
      <path id="Path_14" data-name="Path 14" d="M578.295,715.142s7.41-12.559,4.28-14.025-16.422-7.311-16.422-7.311l-19.492-6.46s-28.126-41.8-28.743-5.45S538.4,726.985,538.4,726.985s18.816,40.493,29.474,34.036,21.323-28.376,21.323-28.376S569.974,722.313,578.295,715.142Z" transform="translate(-80.673 -138.282)" fill="#2f2e41"/>
      <path id="Path_15" data-name="Path 15" d="M836.645,481.32,805.208,502l-46.925,42.309-3.541-5.907-9.928-49.639H747.3l25.647-47.156Z" opacity="0.1"/>
      <path id="Path_16" data-name="Path 16" d="M772.943,436.645,747.3,483.8h-9.1l-5.791,16.547-13.237,3.309,35.574,38.883,50.466-45.5,31.437-20.682Z" fill="#575a89"/>
      <path id="Path_17" data-name="Path 17" d="M817.765,474l-3.5,1.345a4.88,4.88,0,0,1-1.248-6.86l-6.46-.3a48.782,48.782,0,0,1,72.825-5.87c.294-1.013,3.5.958,4.809,2.956.44-1.648,3.446,6.32,4.509,11.953.492-1.875,2.385,1.152.727,4.057,1.051-.154,1.525,2.535.712,4.032,1.149-.54.956,2.669-.291,4.813,1.64-.146-12.935,22.476-18.837,35.7-1.714-7.873-3.64-16.164-9.166-22.029-.939-1-1.968-1.9-2.995-2.811l-5.554-4.9c-6.458-5.7-12.333-12.736-20.935-14.866-5.912-1.464-9.651-1.795-6.429-8.457-2.911,1.215-5.629,3.021-8.567,4.15C817.411,475.97,817.822,474.928,817.765,474Z" transform="translate(-80.673 -138.282)" fill="#2f2e41"/>
      <circle id="Ellipse_4" data-name="Ellipse 4" cx="5.791" cy="5.791" r="5.791" transform="translate(772.529 357.637)" fill="#ffb9b9"/>
    </g>
  </g>
</svg>
