<?xml version="1.0" encoding="utf-8"?>
<!-- Generator: Adobe Illustrator 23.0.1, SVG Export Plug-In . SVG Version: 6.00 Build 0)  -->
<svg version="1.1" id="Layer_1" xmlns="http://www.w3.org/2000/svg" xmlns:xlink="http://www.w3.org/1999/xlink" x="0px" y="0px"
	 viewBox="0 0 1366 768" style="enable-background:new 0 0 1366 768;" xml:space="preserve">
<style type="text/css">
	.st0{clip-path:url(#SVGID_2_);}
	.st1{fill:#5A5A5A;}
	.st2{fill:#8A8A8A;}
	.st3{fill:#484848;}
	.st4{fill:none;stroke:#2F2E41;stroke-width:2;stroke-miterlimit:10;}
	.st5{fill:#3F3D56;}
	.st6{fill:#6C63FF;}
	.st7{opacity:0.3;fill:#6C63FF;enable-background:new    ;}
	.st8{opacity:0.3;fill:none;stroke:#6C63FF;stroke-width:2;stroke-miterlimit:10;enable-background:new    ;}
	.st9{fill:url(#Rectangle_6_1_);}
	.st10{fill:url(#Rectangle_7_1_);}
	.st11{fill:url(#Rectangle_14_1_);}
	.st12{fill:#2F2E41;}
	.st13{fill:#A0616A;}
	.st14{fill:#D0CDE1;}
	.st15{fill:url(#Rectangle_18_1_);}
</style>
<g>
	<defs>
		<rect id="SVGID_1_" width="1366" height="768"/>
	</defs>
	<clipPath id="SVGID_2_">
		<use xlink:href="#SVGID_1_"  style="overflow:visible;"/>
	</clipPath>
	<g id="landing" class="st0">
		<g id="Group_1" transform="translate(204)">
			<ellipse id="Ellipse_2" class="st1" cx="496.8" cy="708.6" rx="152" ry="10"/>
			<ellipse id="Ellipse_3" class="st2" cx="239.8" cy="745.6" rx="71" ry="4.7"/>
			<ellipse id="Ellipse_4" class="st3" cx="798.8" cy="685.6" rx="152" ry="10"/>
			<line id="Line_1" class="st4" x1="6.8" y1="669.6" x2="1021.8" y2="669.6"/>
			<rect id="Rectangle_1" x="183.3" y="176.1" class="st5" width="730" height="493"/>
			<line id="Line_2" class="st4" x1="183.3" y1="212.2" x2="913.3" y2="212.2"/>
			<circle id="Ellipse_5" class="st6" cx="205.8" cy="194.1" r="9"/>
			<circle id="Ellipse_6" class="st6" cx="232.8" cy="194.6" r="9"/>
			<circle id="Ellipse_7" class="st6" cx="259.8" cy="195.1" r="9"/>
			<rect id="Rectangle_2" x="228.8" y="245.6" class="st7" width="616" height="120"/>
			<line id="Line_3" class="st8" x1="228.8" y1="365.6" x2="844.8" y2="245.6"/>
			<line id="Line_4" class="st8" x1="844.8" y1="365.6" x2="228.8" y2="245.6"/>
			<rect id="Rectangle_3" x="228.8" y="441.6" class="st7" width="147" height="193"/>
			<rect id="Rectangle_4" x="697.8" y="441.6" class="st7" width="147" height="193"/>
			<rect id="Rectangle_5" x="463.3" y="441.6" class="st7" width="147" height="193"/>
			<line id="Line_5" class="st8" x1="228.8" y1="441.6" x2="375.8" y2="634.6"/>
			<line id="Line_6" class="st8" x1="375.8" y1="441.6" x2="228.8" y2="634.6"/>
			<line id="Line_7" class="st8" x1="463.8" y1="441.6" x2="610.8" y2="634.6"/>
			<line id="Line_8" class="st8" x1="610.8" y1="441.6" x2="463.8" y2="634.6"/>
			<line id="Line_9" class="st8" x1="697.8" y1="441.6" x2="844.8" y2="634.6"/>
			<line id="Line_10" class="st8" x1="844.8" y1="441.6" x2="697.8" y2="634.6"/>
			
				<linearGradient id="Rectangle_6_1_" gradientUnits="userSpaceOnUse" x1="-203.743" y1="767.809" x2="-203.1649" y2="767.0739" gradientTransform="matrix(616 0 0 -120 125974.7578 92405.5938)">
				<stop  offset="0" style="stop-color:#564BFF"/>
				<stop  offset="1" style="stop-color:#55B9FF"/>
			</linearGradient>
			<rect id="Rectangle_6" x="310.8" y="245.6" class="st9" width="616" height="120"/>
			<linearGradient id="Rectangle_7_1_" gradientUnits="userSpaceOnUse" x1="725.759" y1="584.093" x2="872.759" y2="584.093">
				<stop  offset="0" style="stop-color:#0052F7"/>
				<stop  offset="0" style="stop-color:#1524FF"/>
				<stop  offset="1" style="stop-color:#0086FF"/>
			</linearGradient>
			<rect id="Rectangle_7" x="725.8" y="487.6" class="st10" width="147" height="193"/>
			<rect id="Rectangle_8" x="747.3" y="513.1" class="st5" width="104" height="12"/>
			<rect id="Rectangle_9" x="747.3" y="539.1" class="st5" width="104" height="12"/>
			<rect id="Rectangle_10" x="747.3" y="565.1" class="st5" width="104" height="12"/>
			<rect id="Rectangle_11" x="747.3" y="591.1" class="st5" width="104" height="12"/>
			<rect id="Rectangle_12" x="747.3" y="617.1" class="st5" width="104" height="12"/>
			<rect id="Rectangle_13" x="747.3" y="643.1" class="st5" width="104" height="12"/>
			<linearGradient id="Rectangle_14_1_" gradientUnits="userSpaceOnUse" x1="264.759" y1="564.093" x2="411.759" y2="564.093">
				<stop  offset="0" style="stop-color:#6C63FF"/>
				<stop  offset="0.3715" style="stop-color:#6964FF"/>
				<stop  offset="1" style="stop-color:#0086FF"/>
				<stop  offset="1" style="stop-color:#FF00C3"/>
			</linearGradient>
			<rect id="Rectangle_14" x="264.8" y="467.6" class="st11" width="147" height="193"/>
			<rect id="Rectangle_15" x="286.3" y="532.1" class="st5" width="104" height="12"/>
			<rect id="Rectangle_16" x="286.3" y="558.1" class="st5" width="104" height="12"/>
			<rect id="Rectangle_17" x="286.3" y="584.1" class="st5" width="104" height="12"/>
			<path id="Path_2" class="st5" d="M648.6,316c0,22.5-13.4,30.3-29.8,30.3c-0.4,0-0.8,0-1.1,0c-0.8,0-1.5-0.1-2.3-0.1
				c-14.9-1.1-26.4-9.3-26.4-30.2c0-21.6,27.6-48.9,29.7-50.9l0,0l0.1-0.1C618.8,264.9,648.6,293.5,648.6,316z"/>
			<path id="Path_3" class="st6" d="M617.7,342.8l10.9-15.2l-10.9,16.9l0,1.8c-0.8,0-1.5-0.1-2.3-0.1l1.2-22.5l0-0.2l0,0l0.1-2.1
				l-11-17l11,15.4l0,0.5l0.9-17l-9.4-17.5l9.5,14.5l0.9-35.2v-0.1v0.1l-0.2,27.8l9.3-11l-9.4,13.4l-0.2,15.2l8.7-14.6l-8.8,16.8
				l-0.1,8.5l12.7-20.3L618,324L617.7,342.8z"/>
			<circle id="Ellipse_8" class="st12" cx="82.2" cy="339.2" r="23.4"/>
			<path id="Path_4" class="st13" d="M69.9,354.8c0,0,0.4,14.5-1.1,14.8c-1.4,0.4,19.4,6,19.4,6l2.1-19.8L69.9,354.8z"/>
			<path id="Path_5" class="st13" d="M234.3,478.3c0,0,15.5,0,15.9-1.8s3.5,14.5,3.5,14.5l-6.4,2.1c0,0-12-5.3-13.1-5.3
				S234.3,478.3,234.3,478.3z"/>
			<path id="Path_6" class="st12" d="M251.2,484.7c0,0-2.8-9.5-6.4-9.9c0,0,12-7.8,12.3-10.2s4.6-8.8,6.4-6.7s1.8,35.6-1.4,39.2
				s-17.3-5-17.3-5S253.7,488.2,251.2,484.7z"/>
			<path id="Path_7" class="st13" d="M59.7,619.8L56.8,635l13.1,2.1v-17.3H59.7z"/>
			<path id="Path_8" class="st12" d="M59.7,633.2c0,0-2.1-6.7-3.5-5.6s-3.5,7.8-3.2,9.5s2.8,15.5,1.8,18s5.3,15.2,13.4,14.1
				s7.4-8.1,7.4-8.1l-2.8-10.9l-1.1-17.3C71.7,632.8,62.5,631.4,59.7,633.2z"/>
			<circle id="Ellipse_9" class="st12" cx="74" cy="314.6" r="9.7"/>
			<path id="Path_9" class="st12" d="M61.1,309.3c0-5,3.7-9.1,8.7-9.6c-5.3-0.6-10.1,3.3-10.7,8.6c-0.6,5.3,3.3,10.1,8.6,10.7
				c0.7,0.1,1.4,0.1,2.1,0C64.9,318.4,61.1,314.3,61.1,309.3L61.1,309.3z"/>
			<circle id="Ellipse_10" class="st13" cx="82.2" cy="349.9" r="14.8"/>
			<path id="Path_10" class="st12" d="M53,452.9c0,0,0.7,17.6,3.5,26.8s13,74.5,10.9,79.4s-13,59.6-10.5,62.7S71,624,71,624
				l15.8-66.3c0,0-3.1-73.1,23-74.8s68.8-2.8,68.8-2.8s27.5,8.1,39.9,7.8s19.4,3.2,19.4,3.2l2.1-14.5l-54.7-12
				c0,0-50.1-17.3-77.6-12.7S53,452.9,53,452.9z"/>
			<path id="Path_11" class="st14" d="M72.7,365.1c0,0-4.2-2.5-5.3,0c-1.1,2.5-8.5,4.6-11.3,2.5c-2.8-2.1-9.9,0.7-9.9,0.7l-7.8,22.9
				c0,0,3.9,19.8,7.4,30.7c3.5,10.9,4.9,33.5,3.5,35.6s28.2,10.6,42.7,5.3s17.6-11.3,17.6-11.3s-15.9-22.6-10.6-33.2
				s1.1-22.6,1.1-22.6l2.1-12l-12-6.7c0,0-0.7-6.3-3.5-6.3S72.7,365.1,72.7,365.1z"/>
			<path id="Path_12" class="st14" d="M97.1,384.1h5.3c3,2.8,4.3,6.9,3.5,10.9c-1.4,6.7-7.8,28.9-7.8,28.9l-5.3-13.8L97.1,384.1z"/>
			<path id="Path_13" class="st13" d="M112.3,440.8c0,0,10.6,11.4,2.8,17.4s-9.7-13.8-9.7-13.8L112.3,440.8z"/>
			<path id="Path_14" class="st14" d="M97.1,416.9l2.5,9.9l4.2,7.8c0,0,14.5,9.5,14.5,13.1c0,0-6.4-8.1-14.5,0l-7.2-17.5L97.1,416.9
				z"/>
			<ellipse id="Ellipse_11" class="st12" cx="85" cy="334.3" rx="16.2" ry="9.7"/>
			<path id="Path_15" class="st13" d="M53,335.1c0,0,11.3-6.4,15.9-1.8S55.1,345,55.1,345L53,335.1z"/>
			<path id="Path_16" class="st14" d="M48.7,370l-2.5-1.8c0,0-2.8-4.2-5.3-2.8S24,360.1,24,360.1s5.3,2.5,5.3-1.8s0.7-3.5,4.2-3.5
				s3.5,1.8,4.9-0.7c1.4-2.5,0.7-3.9,3.2-2.5s5.3,0.4,6-0.7c0.7-1.1,13.4-2.8,13.4-2.8s-4.9-14.5-6-15.5s-28.2,10.9-28.2,10.9
				S-7.4,353.1,1.5,364S42,391.5,42,391.5L48.7,370z"/>
			<linearGradient id="Rectangle_18_1_" gradientUnits="userSpaceOnUse" x1="430.759" y1="612.093" x2="577.759" y2="612.093">
				<stop  offset="0.1832" style="stop-color:#6C63FF"/>
				<stop  offset="1" style="stop-color:#066BFC"/>
			</linearGradient>
			<rect id="Rectangle_18" x="430.8" y="515.6" class="st15" width="147" height="193"/>
			<rect id="Rectangle_19" x="471.3" y="546.1" class="st5" width="66" height="66"/>
			<rect id="Rectangle_20" x="446.3" y="626.1" class="st5" width="116" height="8"/>
			<rect id="Rectangle_21" x="446.3" y="648.1" class="st5" width="116" height="8"/>
			<rect id="Rectangle_22" x="446.3" y="670.1" class="st5" width="116" height="8"/>
			<path id="Path_17" class="st6" d="M262.6,725c0,14.6-8.7,19.7-19.4,19.7c-0.2,0-0.5,0-0.7,0c-0.5,0-1,0-1.5-0.1
				c-9.6-0.7-17.1-6-17.1-19.6c0-14,17.9-31.7,19.3-33.1l0,0l0.1-0.1C243.3,691.9,262.6,710.4,262.6,725z"/>
			<path id="Path_18" class="st5" d="M242.6,742.5l7.1-9.9l-7.1,11l0,1.1c-0.5,0-1,0-1.5-0.1l0.8-14.6l0-0.1l0,0l0.1-1.4l-7.1-11
				l7.1,10l0,0.3l0.6-11l-6.1-11.4l6.2,9.4l0.6-22.9v-0.1v0.1l-0.1,18l6.1-7.1l-6.1,8.7l-0.2,9.9l5.7-9.5l-5.7,10.9l-0.1,5.5
				l8.2-13.2l-8.3,15.1L242.6,742.5z"/>
		</g>
	</g>
</g>
</svg>
